<svg width="265" height="210" viewBox="0 0 265 210" fill="none" xmlns="http://www.w3.org/2000/svg">
<path fill-rule="evenodd" clip-rule="evenodd" d="M140.952 174.178V36.7172C134.613 33.282 128.258 30.7085 121.888 28.9966V180.912C128.626 179.51 134.98 177.265 140.952 174.178ZM93.952 182.104V26.993C84.0966 28.2239 74.8026 31.5319 66.07 36.917C54.9387 43.8977 45.977 53.4253 39.185 65.5C32.5817 77.386 29.28 90.4983 29.28 104.837C29.28 119.553 32.2987 132.854 38.336 144.74C44.562 156.626 53.335 165.965 64.655 172.757C73.4329 177.793 83.1986 180.909 93.952 182.104ZM114.758 0.775986H140.952H150.976H264.504V27.56H230.757C240.04 35.7022 247.239 45.2062 252.352 56.072C260.224 72.2 264.16 89.288 264.16 107.336C264.16 127.496 259.456 145.352 250.048 160.904C240.64 176.264 228.064 188.168 212.32 196.616C198.829 203.69 184.352 207.734 168.888 208.746V209H161.056H140.952H113.452C110.911 209.176 108.324 209.264 105.69 209.264C102.8 209.264 99.9576 209.176 97.1614 209H93.952V208.758C77.7706 207.328 63.1939 202.875 50.222 195.397C34.374 186.152 22.1107 173.7 13.432 158.041C4.94202 142.382 0.697021 125.119 0.697021 106.252C0.697021 86.0647 5.03635 67.9527 13.715 51.916C22.3937 35.6907 34.374 23.05 49.656 13.994C65.1267 4.74933 82.5784 0.126999 102.011 0.126999C106.368 0.126999 110.617 0.343328 114.758 0.775986ZM196.768 173C188.279 177.177 178.985 179.889 168.888 181.134V120.584H234.198C232.658 130.201 229.59 138.841 224.992 146.504C218.272 158.024 208.864 166.856 196.768 173ZM224.704 63.272C230.077 72.1301 233.418 82.3061 234.727 93.8H168.888V28.2167C178.505 29.4191 187.607 32.2721 196.192 36.776C208.096 42.728 217.6 51.56 224.704 63.272Z" fill="#FEFEFE"/>
</svg>
